<svg xmlns="http://www.w3.org/2000/svg" viewBox="0 0 248.00 248.00" width="248.00" height="248.00" role="img" aria-label="RESEARCH matrix"><!-- OQTS matrix device "RESEARCH". Generated by lab/tools/build-matrix.py; construction inherited from the locked mark spec. --><g transform="translate(16.0,16.0)"><g transform="scale(0.697720) translate(-35.210,-35.210)"><g fill="none" stroke="#F4EDDC" stroke-width="9.580"><path d="M 53.17 40.00 L 40.00 40.00 L 40.00 340.00 L 53.17 340.00"/><path d="M 326.83 40.00 L 340.00 40.00 L 340.00 340.00 L 326.83 340.00"/></g><g fill="#F4EDDC"><path d="M523 98C523 137 495 137 482 137C469 137 440 137 440 88C440 77 437 64 430 64C410 64 410 106 410 153C410 216 410 224 401 248C391 272 373 291 359 303C419 341 437 400 437 439C437 527 360 611 240 611H67C48 611 21 610 21 573C21 537 49 536 67 536H84V75H67C48 75 21 74 21 37C21 1 49 0 67 0H183C201 0 230 1 230 37C230 74 202 75 183 75H167V268H235C252 268 280 268 309 243C328 225 328 204 328 166C328 100 328 70 347 38C365 6 395 -11 431 -11C497 -11 523 58 523 98ZM354 439C354 395 312 343 229 343H166V536H229C313 536 354 483 354 439Z" transform="translate(63.320,121.000) scale(0.101639,-0.101639)"/><path d="M504 48V134C504 157 503 182 463 182C422 182 421 158 421 134V75H176V279H288C289 238 293 223 330 223C370 223 371 248 371 271V362C371 384 370 409 330 409C293 409 289 394 288 354H176V536H399V492C399 470 400 444 440 444C482 444 482 469 482 492V563C482 599 475 611 436 611H72C54 611 24 610 24 574C24 537 54 536 72 536H93V75H72C53 75 24 74 24 37C24 1 54 0 72 0H457C495 0 504 10 504 48Z" transform="translate(163.320,121.000) scale(0.101639,-0.101639)"/><path d="M474 170C474 235 438 278 425 291C384 331 357 338 279 356L201 374C163 385 128 416 128 458C128 504 173 547 238 547C343 547 360 460 365 431C369 405 382 398 406 398C447 398 448 422 448 445V574C448 593 447 622 411 622C387 622 379 608 371 582C331 611 281 622 239 622C126 622 50 541 50 454C50 386 96 318 181 294L293 267C319 262 396 244 396 165C396 117 356 64 284 64C259 64 216 68 180 90C137 118 133 156 132 172C131 192 130 213 91 213C50 213 50 189 50 166V37C50 18 51 -11 87 -11C109 -11 118 1 127 29C167 3 224 -11 283 -11C401 -11 474 79 474 170Z" transform="translate(263.320,121.000) scale(0.101639,-0.101639)"/><path d="M504 48V134C504 157 503 182 463 182C422 182 421 158 421 134V75H176V279H288C289 238 293 223 330 223C370 223 371 248 371 271V362C371 384 370 409 330 409C293 409 289 394 288 354H176V536H399V492C399 470 400 444 440 444C482 444 482 469 482 492V563C482 599 475 611 436 611H72C54 611 24 610 24 574C24 537 54 536 72 536H93V75H72C53 75 24 74 24 37C24 1 54 0 72 0H457C495 0 504 10 504 48Z" transform="translate(63.320,221.000) scale(0.101639,-0.101639)"/><path d="M499 37C499 53 492 65 478 71C472 74 454 75 439 75L322 579C312 621 297 623 262 623C229 623 212 622 202 580L85 75C71 75 52 74 46 72C33 65 25 53 25 37C25 2 55 0 75 0H174C196 0 223 1 223 37C223 70 205 74 170 75L189 161H335L354 75C319 74 301 70 301 37C301 1 328 0 350 0H449C469 0 499 2 499 37ZM317 236H207L262 496Z" transform="translate(163.320,221.000) scale(0.101639,-0.101639)"/><path d="M523 98C523 137 495 137 482 137C469 137 440 137 440 88C440 77 437 64 430 64C410 64 410 106 410 153C410 216 410 224 401 248C391 272 373 291 359 303C419 341 437 400 437 439C437 527 360 611 240 611H67C48 611 21 610 21 573C21 537 49 536 67 536H84V75H67C48 75 21 74 21 37C21 1 49 0 67 0H183C201 0 230 1 230 37C230 74 202 75 183 75H167V268H235C252 268 280 268 309 243C328 225 328 204 328 166C328 100 328 70 347 38C365 6 395 -11 431 -11C497 -11 523 58 523 98ZM354 439C354 395 312 343 229 343H166V536H229C313 536 354 483 354 439Z" transform="translate(263.320,221.000) scale(0.101639,-0.101639)"/><path d="M486 172C486 211 457 211 444 211C433 211 406 211 403 176C397 86 323 64 285 64C200 64 121 165 121 306C121 446 201 547 284 547C340 547 390 504 402 429C406 409 409 391 444 391C485 391 486 415 486 439V574C486 593 485 622 449 622C430 622 421 610 415 601C413 598 413 596 405 579C372 604 328 622 281 622C151 622 38 488 38 306C38 123 151 -11 281 -11C399 -11 486 80 486 172Z" transform="translate(63.320,321.000) scale(0.101639,-0.101639)"/><path d="M504 37C504 74 476 75 457 75H440V536H457C475 536 504 537 504 573C504 610 476 611 457 611H341C323 611 294 610 294 574C294 537 322 536 341 536H357V355H167V536H183C201 536 230 537 230 573C230 610 202 611 183 611H67C48 611 20 610 20 573C20 537 49 536 67 536H84V75H67C48 75 20 74 20 37C20 1 49 0 67 0H183C201 0 230 1 230 37C230 74 202 75 183 75H167V280H357V75H341C323 75 294 74 294 38C294 1 322 0 341 0H457C475 0 504 1 504 37Z" transform="translate(163.320,321.000) scale(0.101639,-0.101639)"/><circle cx="290.00" cy="290.00" r="11.0"/></g></g></g></svg>
