<svg xmlns="http://www.w3.org/2000/svg" viewBox="0 0 332.03 332.03" width="332.03" height="332.03" role="img" aria-label="ALEC matrix"><!-- OQTS matrix device "ALEC". Generated by lab/tools/build-matrix.py; construction inherited from the locked mark spec. --><rect width="332.03" height="332.03" fill="#F4EDDC"/><g transform="translate(58.016,58.016)"><g transform="scale(1.030633) translate(-35.210,-35.210)"><g fill="none" stroke="#002147" stroke-width="9.580"><path d="M 53.17 40.00 L 40.00 40.00 L 40.00 240.00 L 53.17 240.00"/><path d="M 226.83 40.00 L 240.00 40.00 L 240.00 240.00 L 226.83 240.00"/></g><g fill="#002147"><path d="M499 37C499 53 492 65 478 71C472 74 454 75 439 75L322 579C312 621 297 623 262 623C229 623 212 622 202 580L85 75C71 75 52 74 46 72C33 65 25 53 25 37C25 2 55 0 75 0H174C196 0 223 1 223 37C223 70 205 74 170 75L189 161H335L354 75C319 74 301 70 301 37C301 1 328 0 350 0H449C469 0 499 2 499 37ZM317 236H207L262 496Z" transform="translate(63.320,121.000) scale(0.101639,-0.101639)"/><path d="M490 48V134C490 158 489 182 449 182C408 182 407 159 407 134V75H188V536H235C251 536 282 537 282 573C282 610 252 611 235 611H77C58 611 30 610 30 573C30 537 59 536 77 536H105V75H77C58 75 30 74 30 37C30 1 59 0 77 0H443C482 0 490 10 490 48Z" transform="translate(163.320,121.000) scale(0.101639,-0.101639)"/><path d="M504 48V134C504 157 503 182 463 182C422 182 421 158 421 134V75H176V279H288C289 238 293 223 330 223C370 223 371 248 371 271V362C371 384 370 409 330 409C293 409 289 394 288 354H176V536H399V492C399 470 400 444 440 444C482 444 482 469 482 492V563C482 599 475 611 436 611H72C54 611 24 610 24 574C24 537 54 536 72 536H93V75H72C53 75 24 74 24 37C24 1 54 0 72 0H457C495 0 504 10 504 48Z" transform="translate(63.320,221.000) scale(0.101639,-0.101639)"/><path d="M486 172C486 211 457 211 444 211C433 211 406 211 403 176C397 86 323 64 285 64C200 64 121 165 121 306C121 446 201 547 284 547C340 547 390 504 402 429C406 409 409 391 444 391C485 391 486 415 486 439V574C486 593 485 622 449 622C430 622 421 610 415 601C413 598 413 596 405 579C372 604 328 622 281 622C151 622 38 488 38 306C38 123 151 -11 281 -11C399 -11 486 80 486 172Z" transform="translate(163.320,221.000) scale(0.101639,-0.101639)"/></g></g></g></svg>
